PathFileType	4	(X/Y/Z)	C:\Users\Gabre\Documents\2-Sophmore\Autumn\ME 191\Nick_10292018\Nick_10292018\Upper Extremity\static_upper.trc																																																																			
DataRate	CameraRate	NumFrames	NumMarkers	Units	OrigDataRate	OrigDataStartFrame	OrigNumFrames																																																															
100	100	8	23	mm	100	222	253																																																															
Frame#	Time	Back_IMU_O			Back_IMU_D			Back_IMU_X			Back_IMU_Y			c7			aa			L.Acromion			ij			EpL			EpM			R.Radius			R.Ulna			R.Hand			Humerus_IMU_O			Humerus_IMU_D			Humerus_IMU_X			Humerus_IMU_Y			Forearm_IMU_O			Forearm_IMU_D			Forearm_IMU_X			Forearm_IMU_Y			Hand_IMU_O			Scapula_IMU_O		
		X1	Y1	Z1	X2	Y2	Z2	X3	Y3	Z3	X4	Y4	Z4	X5	Y5	Z5	X6	Y6	Z6	X7	Y7	Z7	X8	Y8	Z8	X9	Y9	Z9	X10	Y10	Z10	X11	Y11	Z11	X12	Y12	Z12	X13	Y13	Z13	X14	Y14	Z14	X15	Y15	Z15	X16	Y16	Z16	X17	Y17	Z17	X18	Y18	Z18	X19	Y19	Z19	X20	Y20	Z20	X21	Y21	Z21	X22	Y22	Z22	X23	Y23	Z23
																																																																						
222	2.21	-586.45618	500.93723	1010.91278	-611.83197	570.32684	899.40149	-596.82172	585.72589	1000.3526	-601.84967	486.95474	910.11298	-581.37378	546.4892	1024.73914	-457.41589	405.09253	1009.55804	-508.483	729.39746	977.66028	-409.19376	571.10565	986.13147	-154.59283	316.6087	956.60236	-156.2128	350.46088	886.73975	108.78612	400.26483	1013.11774	99.42481	339.29712	1028.52124	219.86256	394.92563	1023.25464	-339.57715	365.74432	1028.92712	-299.00403	293.41995	930.95404	-364.09061	295.4541	946.90729	-276.00079	361.66638	1011.62836	31.29861	407.38144	1016.97644	77.76144	309.2023	1026.29321	31.39453	308.45477	1019.99689	77.56895	407.48642	1023.6051	173.93808	376.93246	1042.27673	-485.56497	367.63928	1012.43884
223	2.22	-586.52386	500.96497	1010.992	-611.71375	570.29907	899.28986	-596.85956	585.66534	1000.40332	-601.71765	486.95444	910.01862	-581.34442	546.51685	1024.70361	-457.39914	405.07993	1009.55597	-508.4483	729.34106	977.6358	-409.14914	571.11371	986.13147	-154.55005	316.61658	956.58929	-156.04857	350.55911	886.7583	108.66922	400.40872	1013.42303	99.48164	339.40256	1028.58826	219.88164	395.01642	1023.42584	-339.57715	365.74432	1028.92712	-299.00757	293.4801	931.02777	-364.05728	295.45883	946.89465	-276.02032	361.73035	1011.59955	31.34224	407.4845	1016.95667	77.78217	309.30914	1026.34253	31.41529	308.47351	1020.02319	77.67725	407.57425	1023.67426	173.99028	376.96375	1042.4043	-485.5376	367.55902	1012.41913
224	2.23	-586.35651	500.98795	1010.77179	-611.66901	570.26459	899.26904	-596.75586	585.61334	1000.34619	-601.69812	486.9194	910.00006	-581.32806	546.40442	1024.67908	-457.3779	405.10175	1009.57538	-508.47595	729.35913	977.65027	-409.07657	570.98547	986.099	-154.47334	316.65512	956.67078	-156.01793	350.7388	886.73102	108.71068	400.37082	1013.53149	99.54946	339.52332	1028.67188	219.88629	395.12607	1023.60889	-339.62726	365.73352	1028.97595	-298.99039	293.51691	931.05231	-364.07251	295.49319	946.98804	-275.92661	361.71597	1011.66431	31.40266	407.53842	1017.07831	77.78497	309.33154	1026.39429	31.45736	308.54361	1020.05121	77.6682	407.58228	1023.78888	174.01897	377.05905	1042.50159	-485.39542	367.63812	1012.3053
225	2.24	-586.35468	500.99716	1010.81653	-611.7171	570.22247	899.26868	-596.82587	585.66888	1000.3053	-601.63318	486.93777	909.95172	-581.3407	546.36127	1024.65247	-457.36475	405.10806	1009.5882	-508.46707	729.31323	977.7132	-409.01434	570.95447	986.23608	-154.44373	316.67056	956.71881	-155.98532	350.71954	886.85413	108.67805	400.4465	1013.56586	99.52597	339.60257	1028.75525	219.89903	395.267	1023.72552	-339.54141	365.75317	1028.95593	-298.90964	293.44907	931.06067	-363.9274	295.44867	946.93201	-275.8887	361.74612	1011.703	31.46909	407.57907	1017.2265	77.83353	309.46417	1026.41284	31.45153	308.60733	1020.15216	77.7159	407.63885	1024.02234	173.9653	377.21066	1042.57288	-485.5097	367.58231	1012.4093
226	2.25	-586.36115	500.92877	1010.80945	-611.58636	570.12372	899.20349	-596.703	585.65497	1000.36713	-601.53925	486.94504	909.9212	-581.32916	546.26849	1024.64648	-457.33401	405.07712	1009.50586	-508.34995	729.20374	977.71051	-409.02496	571.09259	986.27802	-154.38593	316.73389	956.7121	-156.05727	350.836	886.80182	108.72646	400.50455	1013.62659	99.62597	339.6431	1028.89514	219.92085	395.28778	1023.77454	-339.58304	365.77295	1028.95886	-298.79819	293.4097	931.17377	-363.89563	295.39609	947.02374	-275.8887	361.74612	1011.703	31.45749	407.77173	1017.1618	77.81218	309.63858	1026.48645	31.48829	308.71078	1020.3186	77.70013	407.81378	1024.07043	173.99525	377.23486	1042.6676	-485.38037	367.57562	1012.36926
227	2.26	-586.30615	500.88879	1010.86462	-611.82343	570.14563	899.45129	-596.60614	585.66876	1000.35535	-601.49268	486.87827	909.90881	-581.30096	546.26642	1024.69482	-457.33905	405.06815	1009.57831	-508.33981	729.21191	977.70135	-408.85229	570.97961	986.27057	-154.30846	316.81122	956.79767	-156.03679	350.82266	886.81238	108.71471	400.60086	1013.68011	99.63805	339.73367	1028.97717	219.93059	395.34384	1023.84644	-339.58304	365.77295	1028.95886	-298.7215	293.40195	931.21246	-363.98581	295.34442	947.11707	-275.8887	361.74612	1011.703	31.57115	407.82425	1017.32495	77.79865	309.81195	1026.52795	31.51007	308.7485	1020.34039	77.76048	407.82016	1024.14624	174.01669	377.3663	1042.76892	-485.38397	367.53519	1012.38092
228	2.27	-586.29327	500.85699	1010.88538	-611.8241	570.14557	899.43549	-596.55438	585.62573	1000.33868	-601.56738	486.96164	909.98376	-581.28815	546.2063	1024.66309	-457.3045	405.15192	1009.57867	-508.31009	729.31146	977.77637	-408.8685	571.00989	986.33771	-154.28511	316.89221	956.82361	-155.89803	350.72809	886.91907	108.74702	400.74634	1013.72333	99.74967	339.7915	1029.06775	220.00056	395.51575	1023.91754	-339.53244	365.80505	1028.96155	-298.66135	293.46005	931.19519	-363.73825	295.32117	947.07025	-275.87906	361.89609	1011.69116	31.62833	407.93802	1017.32556	77.78374	309.87674	1026.63525	31.51577	308.79193	1020.36243	77.78736	407.94705	1024.18054	174.05963	377.50879	1042.88733	-485.41046	367.46109	1012.40308
229	2.28	-586.2088	500.81854	1010.86835	-611.68396	570.16095	899.48615	-596.48187	585.57849	1000.30182	-601.49384	486.92514	909.9104	-581.27814	546.22351	1024.70361	-457.23071	405.13855	1009.60724	-508.21741	729.27686	977.80756	-408.83447	570.98944	986.37091	-154.21431	316.87836	956.85852	-155.89984	350.74127	886.90515	108.82702	400.82315	1013.83313	99.76597	339.91043	1029.15088	220.0271	395.72906	1024.05725	-339.496	365.85034	1028.96924	-298.64883	293.41577	931.23889	-363.60791	295.30362	947.16742	-275.82904	361.92056	1011.72766	31.59433	407.93045	1017.30762	77.88183	309.89902	1026.80432	31.54404	308.84644	1020.479	77.77238	408.06833	1024.25439	174.01035	377.64853	1042.91528	-485.26559	367.58606	1012.35168
